<svg width="448" height="512" viewBox="0 0 448 512" fill="none" xmlns="http://www.w3.org/2000/svg">
<path d="M400 480H48C21.49 480 0 458.51 0 432V80C0 53.49 21.49 32 48 32H400C426.51 32 448 53.49 448 80V432C448 458.51 426.51 480 400 480ZM195.314 381.941L379.314 197.941C385.562 191.693 385.562 181.562 379.314 175.314L356.687 152.687C350.439 146.439 340.308 146.438 334.059 152.687L184 302.745L113.941 232.686C107.693 226.438 97.562 226.438 91.313 232.686L68.686 255.313C62.438 261.561 62.438 271.692 68.686 277.94L172.686 381.94C178.935 388.19 189.065 388.19 195.314 381.941V381.941Z" fill="#663399"/>
</svg>
